<?xml version="1.0" encoding="UTF-8" standalone="no"?>
<!DOCTYPE svg PUBLIC "-//W3C//DTD SVG 1.1//EN" "http://www.w3.org/Graphics/SVG/1.1/DTD/svg11.dtd">
<svg viewBox="0 0 100 100" height="40.0pt" width="40.0pt" xmlns="http://www.w3.org/2000/svg" version="1.1">
<path d="M 0.00 0.00 L 30.59 0.00 C 30.09 1.47 29.63 2.95 29.16 4.43 C 25.56 4.57 22.11 4.97 18.57 5.66 C 18.52 6.64 18.47 7.62 18.42 8.61 C 18.38 9.49 18.34 10.37 18.29 11.25 C 16.75 11.76 15.21 12.26 13.67 12.75 C 14.84 12.18 16.02 11.62 17.20 11.05 C 17.56 10.34 17.91 9.62 18.27 8.91 C 14.50 11.59 11.51 14.31 8.91 18.18 C 9.62 17.90 10.33 17.62 11.03 17.34 C 11.61 16.81 12.08 16.21 12.44 15.54 C 12.09 18.45 10.92 17.96 8.56 18.45 C 7.52 18.74 6.32 18.44 5.84 19.59 C 4.69 22.54 4.69 26.08 4.43 29.22 C 2.95 29.71 1.47 30.21 0.00 30.75 L 0.00 0.00 Z" fill="none" />
<path d="M 30.59 0.00 L 32.39 0.00 C 32.83 1.81 33.28 3.61 33.72 5.42 C 36.17 5.44 38.70 5.34 41.11 5.76 C 44.14 6.85 46.81 10.13 50.00 10.49 C 53.19 10.13 55.86 6.85 58.89 5.76 C 61.28 5.35 63.79 5.44 66.21 5.41 C 66.70 3.60 67.18 1.79 67.73 0.00 L 69.08 0.00 C 68.95 3.66 68.99 7.45 68.34 11.06 C 68.28 11.92 67.81 12.55 66.94 12.97 C 63.10 13.70 59.86 12.55 56.73 15.42 C 55.74 14.54 54.80 13.55 53.72 12.79 C 51.27 12.04 48.35 12.42 45.84 12.73 C 42.77 17.48 37.96 20.27 34.81 24.93 C 29.64 24.70 31.60 17.99 28.85 15.15 C 26.72 14.12 23.70 14.66 21.37 14.59 C 22.36 16.91 23.29 19.24 24.19 21.59 C 22.78 20.37 21.21 19.22 19.96 17.84 C 19.20 16.27 19.37 14.20 19.12 12.48 C 23.21 12.62 27.23 12.95 31.29 13.47 C 31.88 16.73 32.54 19.97 33.26 23.19 C 36.72 20.30 40.12 17.59 42.35 13.56 C 39.14 13.43 35.94 13.41 32.73 13.41 C 32.10 11.46 31.48 9.51 30.86 7.55 C 26.23 6.90 22.87 7.21 18.42 8.61 C 18.47 7.62 18.52 6.64 18.57 5.66 C 22.11 4.97 25.56 4.57 29.16 4.43 C 29.63 2.95 30.09 1.47 30.59 0.00 Z" fill="none" />
<path d="M 32.39 0.00 L 67.73 0.00 C 67.18 1.79 66.70 3.60 66.21 5.41 C 63.79 5.44 61.28 5.35 58.89 5.76 C 55.86 6.85 53.19 10.13 50.00 10.49 C 46.81 10.13 44.14 6.85 41.11 5.76 C 38.70 5.34 36.17 5.44 33.72 5.42 C 33.28 3.61 32.83 1.81 32.39 0.00 Z" fill="none" />
<path d="M 69.08 0.00 L 69.48 0.00 C 69.51 1.81 69.54 3.63 69.58 5.44 C 72.84 5.48 76.11 5.51 79.38 5.51 C 79.90 6.04 80.42 6.57 80.94 7.10 C 82.08 10.11 82.43 11.09 85.63 12.08 C 86.54 12.80 87.46 13.52 88.36 14.25 C 88.43 15.13 88.50 16.01 88.57 16.90 C 90.57 18.03 92.56 19.19 94.55 20.36 C 94.50 23.71 94.51 27.06 94.55 30.41 C 96.37 30.46 98.18 30.51 100.00 30.56 L 100.00 32.83 C 98.58 33.53 97.14 34.18 95.70 34.83 C 95.61 37.22 95.65 39.69 95.21 42.04 C 94.56 44.76 92.74 47.27 92.18 50.00 C 92.74 52.73 94.56 55.24 95.20 57.96 C 95.64 60.29 95.61 62.76 95.70 65.12 C 97.14 65.79 98.58 66.46 100.00 67.17 L 100.00 69.44 C 98.19 69.49 96.37 69.54 94.56 69.59 C 94.52 72.96 94.50 76.32 94.52 79.68 C 92.64 80.80 90.76 81.91 88.87 83.01 C 88.29 84.38 87.72 85.76 87.14 87.14 C 85.74 87.72 84.34 88.29 82.94 88.86 C 82.31 90.44 81.39 91.84 80.66 93.36 C 76.83 93.04 73.01 92.75 69.18 92.40 C 68.52 90.50 67.85 88.60 67.18 86.70 C 64.37 86.64 61.56 86.57 58.76 86.49 C 58.38 85.41 58.00 84.33 57.63 83.25 C 58.61 82.66 59.60 82.07 60.59 81.48 C 62.43 80.36 63.96 78.90 65.53 77.44 C 66.20 77.38 66.88 77.32 67.55 77.26 C 67.99 80.33 68.40 83.39 68.77 86.47 C 72.86 86.79 76.90 86.85 81.00 86.60 C 79.55 79.54 74.81 76.14 69.83 71.63 L 70.94 70.79 C 71.99 70.55 73.04 70.34 74.09 70.11 C 74.62 71.48 75.15 72.85 75.68 74.22 C 79.07 76.11 82.33 78.21 85.57 80.32 C 86.84 76.41 86.51 73.40 85.54 69.50 C 82.50 69.00 79.45 68.57 76.38 68.26 C 76.42 67.11 76.46 65.95 76.51 64.80 C 81.15 61.82 82.92 57.01 88.43 55.20 C 88.45 51.74 88.45 48.27 88.43 44.80 C 82.94 42.96 81.08 38.23 76.54 35.12 C 76.45 34.16 76.37 33.19 76.28 32.22 C 79.37 31.61 82.46 31.00 85.55 30.40 C 86.56 26.48 86.70 23.61 85.76 19.64 C 82.60 21.24 79.23 24.77 75.58 24.41 C 75.26 20.75 78.78 17.40 80.36 14.20 C 76.48 13.33 73.42 13.55 69.60 14.49 C 69.00 17.56 68.39 20.64 67.78 23.72 C 66.81 23.63 65.84 23.55 64.87 23.47 C 62.62 20.25 59.67 17.94 56.73 15.42 C 59.86 12.55 63.10 13.70 66.94 12.97 C 67.81 12.55 68.28 11.92 68.34 11.06 C 68.99 7.45 68.95 3.66 69.08 0.00 Z" fill="none" />
<path d="M 69.48 0.00 L 100.00 0.00 L 100.00 30.56 C 98.18 30.51 96.37 30.46 94.55 30.41 C 94.51 27.06 94.50 23.71 94.55 20.36 C 92.56 19.19 90.57 18.03 88.57 16.90 C 88.50 16.01 88.43 15.13 88.36 14.25 C 87.46 13.52 86.54 12.80 85.63 12.08 C 82.43 11.09 82.08 10.11 80.94 7.10 C 80.42 6.57 79.90 6.04 79.38 5.51 C 76.11 5.51 72.84 5.48 69.58 5.44 C 69.54 3.63 69.51 1.81 69.48 0.00 Z" fill="none" />
<path d="M 30.86 7.55 C 31.48 9.51 32.10 11.46 32.73 13.41 C 35.94 13.41 39.14 13.43 42.35 13.56 C 40.12 17.59 36.72 20.30 33.26 23.19 C 32.54 19.97 31.88 16.73 31.29 13.47 C 27.23 12.95 23.21 12.62 19.12 12.48 C 19.37 14.20 19.20 16.27 19.96 17.84 C 21.21 19.22 22.78 20.37 24.19 21.59 L 24.71 22.97 C 23.82 23.62 22.93 24.26 22.03 24.89 C 20.00 23.29 17.97 21.69 15.93 20.10 C 15.05 20.64 14.17 21.17 13.29 21.71 C 13.49 24.71 13.82 27.68 14.32 30.65 C 17.44 31.19 20.55 31.56 23.70 31.79 C 23.58 32.83 23.47 33.88 23.30 34.91 L 23.07 35.19 C 19.86 36.93 17.80 38.60 15.52 41.46 C 14.85 41.56 14.18 41.67 13.51 41.77 C 13.48 38.72 13.46 35.66 13.46 32.61 C 11.49 32.00 9.53 31.39 7.56 30.80 C 7.05 26.36 7.40 22.73 8.56 18.45 C 10.92 17.96 12.09 18.45 12.44 15.54 C 12.08 16.21 11.61 16.81 11.03 17.34 C 10.33 17.62 9.62 17.90 8.91 18.18 C 11.51 14.31 14.50 11.59 18.27 8.91 C 17.91 9.62 17.56 10.34 17.20 11.05 C 16.02 11.62 14.84 12.18 13.67 12.75 C 15.21 12.26 16.75 11.76 18.29 11.25 C 18.34 10.37 18.38 9.49 18.42 8.61 C 22.87 7.21 26.23 6.90 30.86 7.55 Z" fill="#7bdc7b" />
<path d="M 21.88 8.56 C 25.45 7.74 27.97 7.71 30.34 10.75 C 27.32 11.34 24.26 11.54 21.19 11.59 C 21.39 10.57 21.62 9.56 21.88 8.56 Z" fill="#5fd55f" />
<path d="M 39.01 7.99 C 40.38 8.32 41.48 9.68 42.54 10.56 C 40.49 10.97 38.28 11.58 36.18 11.48 C 34.81 11.04 33.65 9.84 32.49 9.01 C 34.58 8.54 36.86 7.82 39.01 7.99 Z" fill="#b7ecb7" />
<path d="M 67.61 9.77 C 64.04 11.86 61.64 11.61 57.72 10.75 C 58.16 10.05 58.60 9.35 59.05 8.66 C 62.49 7.22 64.56 8.23 67.61 9.77 Z" fill="#b7ecb7" />
<path d="M 45.84 12.73 C 48.35 12.42 51.27 12.04 53.72 12.79 C 54.80 13.55 55.74 14.54 56.73 15.42 C 59.67 17.94 62.62 20.25 64.87 23.47 C 65.84 23.55 66.81 23.63 67.78 23.72 C 68.39 20.64 69.00 17.56 69.60 14.49 C 73.42 13.55 76.48 13.33 80.36 14.20 C 78.78 17.40 75.26 20.75 75.58 24.41 C 79.23 24.77 82.60 21.24 85.76 19.64 C 86.70 23.61 86.56 26.48 85.55 30.40 C 82.46 31.00 79.37 31.61 76.28 32.22 C 76.37 33.19 76.45 34.16 76.54 35.12 C 81.08 38.23 82.94 42.96 88.43 44.80 C 88.45 48.27 88.45 51.74 88.43 55.20 C 82.92 57.01 81.15 61.82 76.51 64.80 C 76.46 65.95 76.42 67.11 76.38 68.26 C 79.45 68.57 82.50 69.00 85.54 69.50 C 86.51 73.40 86.84 76.41 85.57 80.32 C 82.33 78.21 79.07 76.11 75.68 74.22 C 75.15 72.85 74.62 71.48 74.09 70.11 C 73.04 70.34 71.99 70.55 70.94 70.79 L 69.83 71.63 C 66.26 74.59 62.77 77.27 60.59 81.48 C 59.60 82.07 58.61 82.66 57.63 83.25 C 56.42 84.57 55.36 86.03 54.29 87.47 C 51.44 87.55 48.60 87.55 45.75 87.46 C 42.18 82.10 36.37 77.96 31.75 73.44 C 28.84 70.50 25.81 67.71 23.20 64.48 C 19.72 60.78 17.09 56.85 12.52 54.34 C 12.43 51.45 12.44 48.56 12.53 45.67 C 17.14 43.14 19.78 39.11 23.07 35.19 L 23.30 34.91 C 23.47 33.88 23.58 32.83 23.70 31.79 C 20.55 31.56 17.44 31.19 14.32 30.65 C 13.82 27.68 13.49 24.71 13.29 21.71 C 14.17 21.17 15.05 20.64 15.93 20.10 C 17.97 21.69 20.00 23.29 22.03 24.89 C 22.93 24.26 23.82 23.62 24.71 22.97 L 24.19 21.59 C 23.29 19.24 22.36 16.91 21.37 14.59 C 23.70 14.66 26.72 14.12 28.85 15.15 C 31.60 17.99 29.64 24.70 34.81 24.93 C 37.96 20.27 42.77 17.48 45.84 12.73 Z" fill="#bfeebf" />
<path d="M 8.56 18.45 C 7.40 22.73 7.05 26.36 7.56 30.80 C 9.53 31.39 11.49 32.00 13.46 32.61 C 13.46 35.66 13.48 38.72 13.51 41.77 C 14.18 41.67 14.85 41.56 15.52 41.46 C 17.80 38.60 19.86 36.93 23.07 35.19 C 19.78 39.11 17.14 43.14 12.53 45.67 C 12.44 48.56 12.43 51.45 12.52 54.34 C 17.09 56.85 19.72 60.78 23.20 64.48 C 25.81 67.71 28.84 70.50 31.75 73.44 C 36.37 77.96 42.18 82.10 45.75 87.46 C 48.60 87.55 51.44 87.55 54.29 87.47 C 55.36 86.03 56.42 84.57 57.63 83.25 C 58.00 84.33 58.38 85.41 58.76 86.49 C 61.56 86.57 64.37 86.64 67.18 86.70 C 67.85 88.60 68.52 90.50 69.18 92.40 C 73.01 92.75 76.83 93.04 80.66 93.36 L 79.73 94.35 C 76.26 94.54 72.89 94.70 69.59 95.90 C 69.60 97.27 69.60 98.63 69.60 100.00 L 66.82 100.00 C 66.68 98.19 66.54 96.38 66.39 94.56 C 63.57 94.55 60.75 94.53 57.93 94.46 C 55.35 92.42 53.63 90.01 50.00 90.28 C 46.45 90.00 44.90 92.61 41.98 94.12 C 39.43 94.84 36.50 94.55 33.86 94.60 C 33.39 96.40 32.93 98.21 32.39 100.00 L 29.67 100.00 C 29.64 98.45 29.62 96.91 29.59 95.36 C 26.32 94.78 23.07 94.51 19.76 94.44 C 18.10 91.24 15.78 89.19 13.10 86.90 C 10.81 84.25 8.74 81.86 5.63 80.12 C 5.45 76.97 5.13 73.89 4.57 70.78 C 3.04 70.29 1.51 69.79 0.00 69.25 L 0.00 66.89 C 1.80 66.70 3.60 66.52 5.40 66.34 C 5.47 63.64 5.09 60.62 5.86 58.02 C 7.39 55.10 10.00 53.57 9.72 50.00 C 9.99 46.38 7.59 44.67 5.58 42.08 C 5.53 39.47 5.59 36.70 5.06 34.14 C 3.44 33.36 1.69 32.79 0.00 32.21 L 0.00 30.75 C 1.47 30.21 2.95 29.71 4.43 29.22 C 4.69 26.08 4.69 22.54 5.84 19.59 C 6.32 18.44 7.52 18.74 8.56 18.45 Z" fill="#99e499" />
<path d="M 54.59 19.41 C 54.62 20.89 54.65 22.36 54.67 23.84 C 51.34 24.43 48.55 24.41 45.23 23.82 C 45.31 22.38 45.39 20.93 45.52 19.49 C 48.54 19.31 51.57 19.37 54.59 19.41 Z" fill="#7fdd7f" />
<path d="M 31.22 25.59 C 30.70 26.93 30.13 28.24 29.48 29.51 C 28.21 30.15 26.90 30.71 25.55 31.21 C 25.44 29.24 25.33 27.27 25.31 25.30 C 27.28 25.34 29.25 25.46 31.22 25.59 Z" fill="#8ee18e" />
<path d="M 74.70 25.29 C 74.76 27.14 74.76 28.65 74.07 30.41 C 71.10 31.26 68.88 28.80 69.54 25.90 C 71.35 25.32 72.83 25.22 74.70 25.29 Z" fill="#8de18d" />
<path d="M 35.53 26.58 C 35.62 29.59 35.65 32.61 35.64 35.62 C 32.68 36.08 30.03 36.81 27.12 35.61 C 27.90 31.83 32.71 28.93 35.53 26.58 Z" fill="#f6fdf6" />
<path d="M 42.77 27.36 C 43.37 30.07 43.61 32.81 43.82 35.57 C 42.05 35.58 40.27 35.60 38.50 35.61 C 38.48 32.84 38.46 30.07 38.44 27.30 C 39.89 27.30 41.33 27.31 42.77 27.36 Z" fill="#78db78" />
<path d="M 54.84 27.85 C 54.18 30.07 52.61 32.62 50.00 32.57 C 47.20 32.71 46.03 29.64 44.82 27.68 C 48.04 26.33 51.88 25.38 54.84 27.85 Z" fill="#f8fdf8" />
<path d="M 61.56 27.30 C 61.54 30.07 61.52 32.84 61.50 35.61 C 59.73 35.60 57.95 35.58 56.18 35.57 C 56.39 32.81 56.63 30.07 57.23 27.36 C 58.67 27.31 60.11 27.30 61.56 27.30 Z" fill="#78db78" />
<path d="M 72.87 35.61 C 69.96 36.82 67.32 36.07 64.36 35.62 C 64.36 32.60 64.38 29.59 64.47 26.57 C 67.27 28.93 72.14 31.84 72.87 35.61 Z" fill="#f6fdf6" />
<path d="M 0.00 32.21 C 1.69 32.79 3.44 33.36 5.06 34.14 C 5.59 36.70 5.53 39.47 5.58 42.08 C 7.59 44.67 9.99 46.38 9.72 50.00 C 10.00 53.57 7.39 55.10 5.86 58.02 C 5.09 60.62 5.47 63.64 5.40 66.34 C 3.60 66.52 1.80 66.70 0.00 66.89 L 0.00 32.21 Z" fill="#57d257" />
<path d="M 9.95 32.40 C 11.91 35.60 11.61 38.38 11.06 41.92 C 10.15 41.73 9.25 41.55 8.34 41.37 C 8.10 39.63 7.49 37.72 7.80 35.98 C 8.39 34.70 9.17 33.56 9.95 32.40 Z" fill="#b7ecb7" />
<path d="M 92.72 33.07 C 92.69 37.63 93.38 41.25 89.72 44.76 C 87.48 40.82 86.96 38.25 87.67 33.83 C 89.35 33.31 90.99 33.23 92.72 33.07 Z" fill="#b7ecb7" />
<path d="M 100.00 32.83 L 100.00 67.17 C 98.58 66.46 97.14 65.79 95.70 65.12 C 95.61 62.76 95.64 60.29 95.20 57.96 C 94.56 55.24 92.74 52.73 92.18 50.00 C 92.74 47.27 94.56 44.76 95.21 42.04 C 95.65 39.69 95.61 37.22 95.70 34.83 C 97.14 34.18 98.58 33.53 100.00 32.83 Z" fill="#53d153" />
<path d="M 50.00 37.34 C 53.71 37.28 56.91 38.43 60.37 39.55 C 61.44 43.04 62.67 46.30 62.65 50.00 C 62.67 53.70 61.44 56.96 60.37 60.45 C 56.91 61.57 53.71 62.72 50.00 62.66 C 46.29 62.72 43.09 61.57 39.63 60.45 C 38.56 56.96 37.33 53.70 37.35 50.00 C 37.33 46.30 38.56 43.04 39.63 39.55 C 43.09 38.43 46.29 37.28 50.00 37.34 Z" fill="#f8fdf8" />
<path d="M 27.29 38.47 C 30.06 38.48 32.83 38.49 35.61 38.51 C 35.60 40.28 35.59 42.05 35.58 43.83 C 32.82 43.61 30.07 43.37 27.36 42.75 C 27.31 41.33 27.30 39.90 27.29 38.47 Z" fill="#78db78" />
<path d="M 64.39 38.51 C 67.13 38.49 69.87 38.48 72.61 38.47 C 72.66 39.93 72.72 41.38 72.77 42.84 C 70.00 43.26 67.21 43.57 64.42 43.83 C 64.41 42.06 64.40 40.28 64.39 38.51 Z" fill="#78db78" />
<path d="M 47.27 45.20 C 49.41 44.13 52.18 44.39 53.93 46.07 C 55.94 48.16 55.95 51.84 53.93 53.93 C 52.00 55.78 48.78 55.92 46.61 54.40 C 43.66 52.19 43.91 46.89 47.27 45.20 Z" fill="#e3f8e3" />
<path d="M 19.46 45.45 C 20.88 45.42 22.29 45.38 23.70 45.34 C 24.47 48.72 24.47 51.28 23.70 54.66 C 22.29 54.62 20.88 54.58 19.46 54.55 C 19.45 51.52 19.45 48.48 19.46 45.45 Z" fill="#79db79" />
<path d="M 27.60 44.76 C 29.82 46.11 32.63 46.87 32.56 50.00 C 32.55 52.96 30.20 54.10 27.76 54.94 C 25.47 51.75 26.34 48.15 27.60 44.76 Z" fill="#f3fcf3" />
<path d="M 72.40 44.76 C 73.63 48.12 74.56 51.79 72.23 54.94 C 69.79 54.09 67.45 52.96 67.44 50.00 C 67.37 46.87 70.19 46.10 72.40 44.76 Z" fill="#f3fcf3" />
<path d="M 76.47 45.36 C 77.82 45.39 79.18 45.42 80.54 45.45 C 80.55 48.48 80.55 51.51 80.54 54.55 C 79.12 54.58 77.70 54.62 76.28 54.66 C 75.96 52.52 75.66 50.39 75.61 48.23 C 75.88 47.27 76.17 46.32 76.47 45.36 Z" fill="#79db79" />
<path d="M 35.58 56.17 C 35.59 57.94 35.60 59.72 35.61 61.49 C 32.87 61.51 30.13 61.52 27.39 61.53 C 27.34 60.07 27.28 58.61 27.23 57.16 C 30.00 56.74 32.79 56.43 35.58 56.17 Z" fill="#78db78" />
<path d="M 64.42 56.17 C 67.21 56.43 70.00 56.74 72.77 57.15 C 72.72 58.61 72.66 60.07 72.61 61.53 C 69.87 61.52 67.13 61.51 64.39 61.49 C 64.40 59.72 64.41 57.94 64.42 56.17 Z" fill="#78db78" />
<path d="M 11.00 57.81 C 11.25 60.33 11.45 62.86 11.62 65.39 C 10.67 65.97 9.72 66.55 8.77 67.14 C 7.95 64.21 7.19 61.84 8.49 58.88 C 9.33 58.52 10.16 58.16 11.00 57.81 Z" fill="#b7ecb7" />
<path d="M 89.85 55.32 C 93.35 58.82 92.69 62.44 92.72 66.93 C 91.00 66.77 89.36 66.69 87.70 66.18 C 87.45 64.26 87.39 62.29 87.44 60.35 L 87.60 59.57 C 88.32 58.14 89.08 56.72 89.85 55.32 Z" fill="#b7ecb7" />
<path d="M 14.40 57.93 C 17.15 60.73 19.83 63.59 22.48 66.48 C 19.99 67.04 17.55 67.97 15.00 67.26 C 12.51 64.22 13.73 61.34 14.40 57.93 Z" fill="#72d972" />
<path d="M 35.64 64.38 C 35.64 67.40 35.62 70.41 35.53 73.42 C 32.71 71.12 27.83 68.17 27.13 64.39 C 30.05 63.18 32.68 63.93 35.64 64.38 Z" fill="#f6fdf6" />
<path d="M 72.88 64.40 C 72.11 68.18 67.32 71.12 64.46 73.42 C 64.36 70.44 64.28 67.47 64.45 64.49 C 67.34 63.75 70.02 63.20 72.88 64.40 Z" fill="#f6fdf6" />
<path d="M 38.50 64.39 C 40.27 64.40 42.05 64.42 43.82 64.43 C 43.57 67.22 43.26 70.00 42.86 72.78 C 41.39 72.72 39.91 72.66 38.44 72.60 C 38.46 69.86 38.48 67.13 38.50 64.39 Z" fill="#78db78" />
<path d="M 56.18 64.43 C 57.95 64.42 59.73 64.40 61.50 64.39 C 61.52 67.12 61.54 69.86 61.56 72.60 C 60.09 72.66 58.61 72.72 57.14 72.78 C 56.74 70.01 56.43 67.22 56.18 64.43 Z" fill="#78db78" />
<path d="M 48.10 67.93 C 51.40 66.17 54.04 69.16 54.83 72.15 C 52.52 74.23 47.47 74.22 45.16 72.15 C 45.76 70.42 46.44 68.88 48.10 67.93 Z" fill="#f8fdf8" />
<path d="M 100.00 69.44 L 100.00 100.00 L 69.60 100.00 C 69.60 98.63 69.60 97.27 69.59 95.90 C 72.89 94.70 76.26 94.54 79.73 94.35 L 80.66 93.36 C 81.39 91.84 82.31 90.44 82.94 88.86 C 84.34 88.29 85.74 87.72 87.14 87.14 C 87.72 85.76 88.29 84.38 88.87 83.01 C 90.76 81.91 92.64 80.80 94.52 79.68 C 94.50 76.32 94.52 72.96 94.56 69.59 C 96.37 69.54 98.19 69.49 100.00 69.44 Z" fill="#fefffe" />
<path d="M 0.00 69.25 C 1.51 69.79 3.04 70.29 4.57 70.78 C 5.13 73.89 5.45 76.97 5.63 80.12 C 8.74 81.86 10.81 84.25 13.10 86.90 C 15.78 89.19 18.10 91.24 19.76 94.44 C 23.07 94.51 26.32 94.78 29.59 95.36 C 29.62 96.91 29.64 98.45 29.67 100.00 L 0.00 100.00 L 0.00 69.25 Z" fill="none" />
<path d="M 8.73 69.40 C 10.70 69.04 11.81 69.61 12.05 71.13 C 13.10 73.90 11.92 77.57 11.39 80.38 C 10.13 79.65 8.94 78.84 7.81 77.94 C 7.19 75.06 7.35 72.05 8.73 69.40 Z" fill="#64d664" />
<path d="M 23.22 69.13 C 23.82 70.23 24.41 71.33 25.00 72.42 C 22.04 74.35 19.18 76.17 15.65 76.87 C 13.37 75.14 14.95 72.09 16.63 70.55 C 18.52 69.47 21.11 69.50 23.22 69.13 Z" fill="#cef2ce" />
<path d="M 69.83 71.63 C 74.81 76.14 79.55 79.54 81.00 86.60 C 76.90 86.85 72.86 86.79 68.77 86.47 C 68.40 83.39 67.99 80.33 67.55 77.26 C 66.88 77.32 66.20 77.38 65.53 77.44 C 63.96 78.90 62.43 80.36 60.59 81.48 C 62.77 77.27 66.26 74.59 69.83 71.63 Z" fill="#a5e7a5" />
<path d="M 27.56 75.21 C 28.68 75.68 29.80 76.15 30.91 76.64 C 30.40 79.05 30.61 82.90 28.37 84.44 C 26.51 84.70 24.62 84.67 22.75 84.69 C 24.00 81.33 25.40 78.09 27.56 75.21 Z" fill="#cff2cf" />
<path d="M 54.67 76.18 C 54.64 77.65 54.62 79.12 54.59 80.59 C 51.49 80.61 48.40 80.61 45.30 80.58 C 45.34 79.15 45.38 77.71 45.46 76.27 C 48.58 75.38 51.53 75.62 54.67 76.18 Z" fill="#7fdd7f" />
<path d="M 77.12 84.73 C 75.19 84.64 73.27 84.56 71.35 84.49 C 70.19 81.53 69.48 79.17 70.28 75.94 C 74.59 76.71 75.38 81.39 77.12 84.73 Z" fill="#c7f0c7" />
<path d="M 33.62 77.81 C 36.59 80.20 39.28 82.99 42.02 85.65 C 38.61 86.26 35.76 87.43 32.72 85.02 C 32.08 82.48 32.59 80.15 33.62 77.81 Z" fill="#72d972" />
<path d="M 18.96 81.05 C 18.49 83.17 17.91 85.27 17.35 87.38 C 15.75 85.88 14.23 84.34 12.79 82.69 C 14.80 81.94 16.86 81.45 18.96 81.05 Z" fill="#6ed96e" />
<path d="M 27.11 87.54 C 28.72 87.92 30.14 89.17 31.53 90.01 C 28.32 92.46 25.99 93.08 21.99 92.20 C 21.22 91.10 20.52 89.95 19.90 88.75 C 22.16 88.08 24.73 87.21 27.11 87.54 Z" fill="#5fd55f" />
<path d="M 41.95 88.95 C 41.75 89.86 41.55 90.78 41.35 91.69 C 38.08 92.33 35.79 92.15 32.64 91.13 C 33.40 90.26 34.16 89.39 34.93 88.53 C 37.29 88.48 39.61 88.72 41.95 88.95 Z" fill="#b7ecb7" />
<path d="M 65.00 88.56 C 65.82 89.42 66.64 90.29 67.45 91.16 C 64.31 92.08 61.89 92.31 58.64 91.70 C 58.45 90.78 58.25 89.86 58.05 88.95 C 60.37 88.71 62.67 88.48 65.00 88.56 Z" fill="#b7ecb7" />
<path d="M 79.52 90.85 C 75.65 91.68 72.40 93.06 69.65 89.26 C 73.52 88.67 76.82 86.97 79.52 90.85 Z" fill="#5ed45e" />
<path d="M 50.00 90.28 C 53.63 90.01 55.35 92.42 57.93 94.46 C 60.75 94.53 63.57 94.55 66.39 94.56 C 66.54 96.38 66.68 98.19 66.82 100.00 L 32.39 100.00 C 32.93 98.21 33.39 96.40 33.86 94.60 C 36.50 94.55 39.43 94.84 41.98 94.12 C 44.90 92.61 46.45 90.00 50.00 90.28 Z" fill="#57d257" /></svg>